<svg xmlns="http://www.w3.org/2000/svg" width="100" height="100" viewBox="0 0 100 100">
  <rect width="100" height="100" fill="#F7DF1E"/>
  <path d="M65.8,79.1c2.2,3.6,5.1,6.3,10.2,6.3c4.3,0,7-2.1,7-5.1c0-3.5-2.8-4.8-7.5-6.8l-2.6-1.1c-7.4-3.2-12.3-7.1-12.3-15.5c0-7.7,5.9-13.6,15-13.6c6.5,0,11.2,2.3,14.6,8.2l-8,5.1c-1.8-3.2-3.6-4.4-6.6-4.4c-3,0-4.9,1.9-4.9,4.4c0,3.1,1.9,4.3,6.3,6.2l2.6,1.1c8.7,3.7,13.6,7.5,13.6,16.1c0,9.3-7.3,14.4-17.1,14.4c-9.6,0-15.8-4.6-18.8-10.5L65.8,79.1z M35.6,80c1.6,2.9,3.1,5.3,6.6,5.3c3.4,0,5.5-1.3,5.5-6.5V45.1h10.7v33.9c0,11-6.5,16-15.9,16c-8.5,0-13.4-4.4-15.9-9.7L35.6,80z" fill="#000"/>
</svg>