<svg xmlns="http://www.w3.org/2000/svg" width="400" height="300" viewBox="0 0 400 300">
  <!-- Background -->
  <rect width="400" height="300" fill="#8b5cf6"/>
  
  <!-- Dashboard mockup -->
  <rect x="50" y="50" width="300" height="200" rx="5" fill="#ffffff"/>
  
  <!-- Sidebar -->
  <rect x="50" y="50" width="60" height="200" rx="5" fill="#e5e7eb"/>
  
  <!-- Menu items -->
  <rect x="60" y="70" width="40" height="10" rx="2" fill="#d1d5db"/>
  <rect x="60" y="90" width="40" height="10" rx="2" fill="#d1d5db"/>
  <rect x="60" y="110" width="40" height="10" rx="2" fill="#d1d5db"/>
  <rect x="60" y="130" width="40" height="10" rx="2" fill="#d1d5db"/>
  
  <!-- Content area -->
  <rect x="130" y="70" width="200" height="40" rx="3" fill="#e5e7eb"/>
  
  <!-- Charts -->
  <rect x="130" y="130" width="90" height="90" rx="3" fill="#e5e7eb"/>
  <rect x="240" y="130" width="90" height="90" rx="3" fill="#e5e7eb"/>
  
  <!-- Chart elements -->
  <rect x="140" y="170" width="10" height="40" rx="1" fill="#d1d5db"/>
  <rect x="160" y="150" width="10" height="60" rx="1" fill="#d1d5db"/>
  <rect x="180" y="180" width="10" height="30" rx="1" fill="#d1d5db"/>
  <rect x="200" y="160" width="10" height="50" rx="1" fill="#d1d5db"/>
  
  <!-- Pie chart -->
  <path d="M285,175 L285,130 A45,45 0 0,1 330,175 Z" fill="#d1d5db"/>
  <path d="M285,175 L330,175 A45,45 0 0,1 285,220 Z" fill="#a1a1aa"/>
  <path d="M285,175 L285,220 A45,45 0 0,1 240,175 Z" fill="#71717a"/>
</svg>